<?xml version="1.0" encoding="UTF-8"?>
<svg xmlns="http://www.w3.org/2000/svg" id="Layer_1" data-name="Layer 1" viewBox="0 0 512 512" width="512" height="512"><path d="M45.823,265a6,6,0,0,0,0-12h-4.2a6,6,0,0,0,0,12Z"/><path d="M169.214,265a6,6,0,0,0,0-12H68.193a6,6,0,1,0,0,12Z"/><path d="M170,94.653a6,6,0,0,0,6-6V44.939a6,6,0,1,0-12,0V88.653A6,6,0,0,0,170,94.653Z"/><path d="M224,109.3V81.368a6,6,0,0,0-12,0V109.3a6,6,0,0,0,12,0Z"/><path d="M128,117.8V94.725a6,6,0,0,0-12,0V117.8a6,6,0,1,0,12,0Z"/><path d="M470.056,222H430V194.047a27.419,27.419,0,0,0,22-27.07V114.836A5.862,5.862,0,0,0,446,109H402.509c-3.314,0-5.509,2.522-5.509,5.836v52.141c0,13.231,9,24.321,21,27.07V222H371V132.781a36.871,36.871,0,0,0-20-32.942V25.14A6.485,6.485,0,0,0,344.59,19H322.884A6.024,6.024,0,0,0,317,25.14V99.721a36.9,36.9,0,0,0-20,33.06V222H248.838A78.882,78.882,0,0,0,176,148.961V134.31a6,6,0,0,0-12,0v14.651C125.925,151.894,94.662,182.809,91.739,222H41.725a30.869,30.869,0,0,0-16.67,4.7A30.456,30.456,0,0,0,11,252.578l.107,29.444a6,6,0,0,0,12-.044L23,252.512a18.377,18.377,0,0,1,7.208-14.7A19.03,19.03,0,0,1,41.86,234H470.289a18.792,18.792,0,0,1,13.452,5.458A18.208,18.208,0,0,1,489,252.368l-.423,115.283-.542.131c-48.47,12.271-107.827,12.139-156.035-.206v-77.2a6,6,0,0,0-12,0v77.305c-52.7,12.122-114.406,12.048-167-.2V305.832a6,6,0,0,0-12,0v62.246c-35.778,10.991-81.862,11.111-117.576.04l-.17-46.14a6,6,0,0,0-12,.044L11.44,372.5a5.893,5.893,0,0,0,4.069,5.576l.338.069C19.769,379.475,24,380.667,28,381.735V486.86A6.1,6.1,0,0,0,33.972,493H64.953A6.162,6.162,0,0,0,71,486.86V454H441v32.86a6.162,6.162,0,0,0,6.047,6.14h30.981A6.1,6.1,0,0,0,484,486.86V381.068c2-.529,4.669-1.075,6.966-1.657l5.059-1.28a6,6,0,0,0,4.532-5.795L501,252.408a30.119,30.119,0,0,0-8.413-21.066A31.094,31.094,0,0,0,470.056,222Zm-366.282,0A66.776,66.776,0,0,1,236.8,222ZM329,31h10V47H329Zm0,28h10V96.056a44.48,44.48,0,0,0-5.131-.343,33.259,33.259,0,0,0-4.869.312Zm30,142H335V152h24Zm0-61H329.1a6.273,6.273,0,0,0-6.1,6.214v61.134A5.8,5.8,0,0,0,329.1,213H359v9H309V132.781a25,25,0,1,1,50,0Zm50-19h31v16H409Zm0,45.977V149h31v17.977a15.5,15.5,0,1,1-31,0ZM59,481H40V384.4c6,1.171,13,2.074,19,2.713Zm382-39H71V423H441Zm0-31H71V387.988c26,1.26,53.782-1.875,76.706-9.414,56.076,13.549,122.6,13.526,178.67-.055,26.216,7.012,55.065,10.524,83.978,10.524,10.26,0,20.646-.446,30.646-1.332Zm31,70H453V386.442c6-.79,13-1.755,19-2.905Z"/></svg>
