<svg id="Line_cutting_cutting_Ex" height="512" viewBox="0 0 512 512" width="512" xmlns="http://www.w3.org/2000/svg" data-name="Line cutting cutting Ex"><g><path d="m496 288v-264a8 8 0 0 0 -8-8h-464a8 8 0 0 0 -8 8v96h16v-24h96v344h-96v-304h-16v352a8 8 0 0 0 8 8h464a8 8 0 0 0 8-8v-184h-16v136h-96v-344h96v192zm-464 168h96v24h-96zm112-336h88v360h-88zm224-16h-224v-32h224zm-120 376v-360h16v360zm32 0v-360h88v360zm200-24v24h-96v-24zm-96-376v-16a8 8 0 0 0 -8-8h-240a8 8 0 0 0 -8 8v16h-96v-48h448v48z"/><path d="m168 80h16v16h-16z"/><path d="m200 80h16v16h-16z"/><path d="m232 80h16v16h-16z"/><path d="m264 80h16v16h-16z"/><path d="m296 80h16v16h-16z"/><path d="m328 80h16v16h-16z"/><path d="m94 368a18.021 18.021 0 0 0 18-18v-124a18.021 18.021 0 0 0 -18-18h-28a18.021 18.021 0 0 0 -18 18v124a18.021 18.021 0 0 0 18 18zm-28-144h28a2 2 0 0 1 2 2v30h-32v-30a2 2 0 0 1 2-2zm-2 126v-78h32v78a2 2 0 0 1 -2 2h-28a2 2 0 0 1 -2-2z"/><path d="m72 320h16v16h-16z"/><path d="m72 288h16v16h-16z"/><path d="m464 160a8 8 0 0 0 -8-8h-48a8 8 0 0 0 -8 8v32a8 8 0 0 0 8 8h48a8 8 0 0 0 8-8zm-16 24h-32v-16h32z"/><path d="m462.4 275.2-24-32a8 8 0 0 0 -12.8 0l-24 32a8 8 0 0 0 6.4 12.8h48a8 8 0 0 0 6.4-12.8zm-38.4-3.2 8-10.667 8 10.667z"/><path d="m456 304h-48a8 8 0 0 0 -6.4 12.8l24 32a8 8 0 0 0 12.8 0l24-32a8 8 0 0 0 -6.4-12.8zm-24 26.667-8-10.667h16z"/></g></svg>