<?xml version="1.0" encoding="iso-8859-1"?>
<!-- Generator: Adobe Illustrator 19.0.0, SVG Export Plug-In . SVG Version: 6.00 Build 0)  -->
<svg version="1.1" id="Capa_1" xmlns="http://www.w3.org/2000/svg" xmlns:xlink="http://www.w3.org/1999/xlink" x="0px" y="0px"
	 viewBox="0 0 480 480" style="enable-background:new 0 0 480 480;" xml:space="preserve">
<g>
	<g>
		<g>
			<path d="M88,216c-10.613-0.03-20.796,4.187-28.28,11.712c-3.069,3.178-2.981,8.243,0.197,11.312c3.1,2.994,8.015,2.994,11.115,0
				c9.5-9.055,24.436-9.055,33.936,0c9.376,9.37,9.38,24.566,0.011,33.941c-0.004,0.004-0.007,0.007-0.011,0.011
				c-9.5,9.055-24.436,9.055-33.936,0c-3.178-3.07-8.242-2.982-11.312,0.196c-2.994,3.1-2.994,8.015,0,11.116
				c15.623,15.619,40.95,15.616,56.569-0.008s15.616-40.95-0.008-56.569C108.78,220.213,98.607,216,88,216z"/>
			<path d="M88,72c13.255,0,24-10.745,24-24s-10.745-24-24-24S64,34.745,64,48S74.745,72,88,72z M88,40c4.418,0,8,3.582,8,8
				s-3.582,8-8,8s-8-3.582-8-8S83.582,40,88,40z"/>
			<path d="M88,144c17.673,0,32-14.327,32-32s-14.327-32-32-32s-32,14.327-32,32S70.327,144,88,144z M88,96c8.837,0,16,7.163,16,16
				s-7.163,16-16,16s-16-7.163-16-16S79.163,96,88,96z"/>
			<path d="M248,48c-4.418,0-8,3.582-8,8v240c0,4.418,3.582,8,8,8s8-3.582,8-8V56C256,51.582,252.418,48,248,48z"/>
			<path d="M408,64c-0.845,0.033-1.68,0.2-2.472,0.496C403.695,64.232,401.85,64.067,400,64c-30.913,0.035-55.965,25.087-56,56v128
				c0.042,10.134,6.445,19.15,16,22.528V440c0,13.255-10.745,24-24,24H176c-13.255,0-24-10.745-24-24v-88h112
				c13.255,0,24-10.745,24-24V24c0-13.255-10.745-24-24-24H24C10.745,0,0,10.745,0,24v304c0,13.255,10.745,24,24,24h112v88
				c0.026,22.08,17.92,39.974,40,40h160c22.08-0.026,39.974-17.92,40-40V270.528c9.555-3.378,15.958-12.394,16-22.528v-72.688
				c2.647,0.422,5.32,0.652,8,0.688c1.85-0.068,3.695-0.233,5.528-0.496c0.792,0.297,1.627,0.464,2.472,0.496c4.418,0,8-3.582,8-8
				V72C416,67.582,412.418,64,408,64z M48,16h80v120c0,13.255-10.745,24-24,24H72c-13.255,0-24-10.745-24-24V16z M24,336
				c-4.418,0-8-3.582-8-8V24c0-4.418,3.582-8,8-8h8v120c0.026,22.08,17.92,39.974,40,40h32c22.08-0.026,39.974-17.92,40-40V16h120
				c4.418,0,8,3.582,8,8v304c0,4.418-3.582,8-8,8H24z M368,256c-4.418,0-8-3.582-8-8v-88.8c0.2,0.208,0.448,0.352,0.648,0.552
				c1.955,1.951,4.057,3.748,6.288,5.376c0.744,0.544,1.552,0.992,2.328,1.496c1.8,1.209,3.67,2.309,5.6,3.296
				c0.392,0.192,0.72,0.464,1.112,0.648L376,248C376,252.418,372.418,256,368,256z M400,160c-4.562,0.008-9.09-0.788-13.376-2.352
				c-20.793-7.463-31.598-30.369-24.135-51.162C368.175,90.645,383.169,80.058,400,80V160z"/>
			<path d="M472,112h-32c-4.418,0-8,3.582-8,8s3.582,8,8,8h32c4.418,0,8-3.582,8-8S476.418,112,472,112z"/>
			<path d="M432.504,100c1.405,0.003,2.785-0.367,4-1.072l27.712-16c3.841-2.184,5.184-7.068,3-10.909s-7.068-5.184-10.909-3
				c-0.031,0.017-0.061,0.035-0.092,0.053l-27.712,16c-3.826,2.209-5.137,7.102-2.928,10.928
				C427.005,98.475,429.646,100,432.504,100z"/>
			<path d="M464.3,157.125c-0.03-0.018-0.061-0.035-0.092-0.053l-27.712-16c-3.812-2.234-8.713-0.956-10.947,2.856
				c-2.234,3.812-0.956,8.713,2.856,10.947c0.03,0.018,0.061,0.035,0.092,0.053l27.712,16c3.812,2.234,8.713,0.956,10.947-2.856
				C469.39,164.261,468.111,159.359,464.3,157.125z"/>
			<path d="M64,264h32c4.418,0,8-3.582,8-8s-3.582-8-8-8H64c-4.418,0-8,3.582-8,8S59.582,264,64,264z"/>
		</g>
	</g>
</g>
<g>
</g>
<g>
</g>
<g>
</g>
<g>
</g>
<g>
</g>
<g>
</g>
<g>
</g>
<g>
</g>
<g>
</g>
<g>
</g>
<g>
</g>
<g>
</g>
<g>
</g>
<g>
</g>
<g>
</g>
</svg>
