<svg xmlns="http://www.w3.org/2000/svg" style="display: none;"><symbol id="hair-dryer" viewBox="0 0 512 512"><title>hair-dryer</title><g> <g> <path d="M398.68,25.602c-9.286,0-17.173,6.066-19.936,14.439c-1.974,0.5-27.642,8.733-53.274,10.916 c-4.128,0.351-7.188,3.981-6.837,8.108c0.351,4.127,3.985,7.192,8.108,6.837c15.552-1.323,31.81-4.49,50.938-9.935v135.278 c-57.734-16.435-95.842-14.187-154.998,8.782l-42.874,16.647c-2.027,0.788-30.466,20.356-71.696,14.427 c-52.326-7.476-93.109-52.651-93.109-107.493c0-84.1,91.867-135.991,163.708-93.599c0.351,0.207,0.717,0.385,1.097,0.532 c34.539,12.467,69.296,30.186,110.446,34.88c4.114,0.478,7.832-2.485,8.302-6.601c0.47-4.116-2.485-7.833-6.601-8.302 c-18.859-2.152-38.549-7.491-63.843-17.313l-42.314-16.43C166.979,5.799,145.49,0.001,123.606,0.001 C55.449,0.001,0,55.45,0,123.607c0,50.843,30.86,94.608,74.829,113.565v145.419c0,23.64,17.361,43.297,40.002,46.905v26.183 c0,31.055,25.264,56.318,56.318,56.318c31.054,0,56.318-25.264,56.318-56.318c0-19.843,0-133.502,0-150.863 c0-22.782,18.535-41.317,41.318-41.317c22.782,0,41.317,18.535,41.317,41.317v47.826h-4.348 c-18.373,0-33.321,14.948-33.321,33.321v25.209c-8.186,2.869-14.084,10.653-14.084,19.806c0,11.58,9.422,21.001,21.001,21.001 h4.25v20.501c0,4.143,3.357,7.5,7.5,7.5s7.5-3.357,7.5-7.5v-20.501h38.002v20.501c0,4.143,3.357,7.5,7.5,7.5s7.5-3.357,7.5-7.5 v-20.501h4.25c11.58,0,21.001-9.422,21.001-21.001c0-9.155-5.897-16.938-14.085-19.807v-24.309 c0-18.87-15.352-34.222-34.222-34.222h-3.446v-47.826c0-31.055-25.264-56.318-56.318-56.318 c-31.054,0-56.319,25.264-56.319,56.318c0,17.485,0,131.063,0,150.863c0,22.782-18.535,41.317-41.317,41.317 s-41.317-18.535-41.317-41.317v-26.183c22.641-3.607,40.002-23.264,40.002-46.905c0-19.943,0-131.422,0-144.35 c5.487-2.211,10.828-4.806,15.963-7.802l42.314-16.43c57.278-22.24,91.942-23.992,148.364-7.499l2.268,0.663 c2.764,8.372,10.65,14.439,19.936,14.439c11.58,0,21.001-9.422,21.001-21.001V46.6C419.681,35.022,410.259,25.602,398.68,25.602z M355.273,424.981h0.584c3.309,0,6,2.691,6,6c0,3.309-2.691,6-6,6h-76.504c-3.309,0-6-2.691-6-6c0-3.309,2.691-6,6-6 C287.161,424.981,347.396,424.981,355.273,424.981z M328.552,367.645c10.599,0,19.221,8.622,19.221,19.221v23.114h-60.336v-24.015 c0-10.103,8.218-18.32,18.32-18.32H328.552z M154.834,264.584h-23.932c-8.861,0-16.07,7.209-16.07,16.07v11.02 c0,4.143,3.358,7.5,7.5,7.5c4.142,0,7.5-3.357,7.5-7.5v-11.02c0-2.044,2.193-0.632,25.001-1.069v87.672h-23.016 c-1.094,0-1.985-0.891-1.985-1.984v-38.597c0-4.143-3.358-7.5-7.5-7.5c-4.142,0-7.5,3.357-7.5,7.5v38.597 c0,9.366,7.619,16.985,16.986,16.985h23.016v0.334c0,17.922-14.581,32.502-32.502,32.502s-32.502-14.58-32.502-32.502V242.534 c20.879,5.933,43.618,6.27,65.004,0.691V264.584z M404.68,200.612c0,3.309-2.691,6-6,6c-3.309,0-6-2.691-6-6V46.603 c0-3.309,2.691-6,6-6c3.309,0,6,2.691,6,6V200.612z"/> </g> </g><g> <g> <path d="M65.349,63.974c-16.515,15.78-25.52,37.518-25.52,59.633c0,46.798,39.304,84.963,87.064,82.371 c44.136-2.45,77.94-39.106,77.94-82.371C204.834,51.128,117.535,14.095,65.349,63.974z M189.779,121.463l-65.303-65.304 C159.992,57.276,188.663,85.946,189.779,121.463z M54.882,121.562l69.495,69.495C85.526,192.213,53.718,160.439,54.882,121.562z M176.099,164.358l-25.862-25.863c-2.929-2.928-7.678-2.928-10.607,0c-2.929,2.93-2.929,7.678,0,10.608l26.128,26.128 c-6.743,5.682-14.605,10.076-23.21,12.783L57.926,103.39c2.707-8.606,7.1-16.468,12.783-23.211l43.989,43.989 c2.929,2.928,7.678,2.928,10.607,0c2.929-2.93,2.929-7.678,0-10.608L81.582,69.838c6.959-5.288,14.982-9.285,23.786-11.573 l82.304,82.304C185.484,148.992,181.621,157.09,176.099,164.358z"/> </g> </g><g> <g> <path d="M511.73,30.619c-1.097-3.995-5.218-6.348-9.218-5.248l-58.309,16.001c-3.995,1.096-6.345,5.223-5.248,9.218 c0.914,3.331,3.934,5.518,7.229,5.518c1.828,0-1.118,0.484,60.297-16.271C510.477,38.74,512.827,34.613,511.73,30.619z"/> </g> </g><g> <g> <path d="M511.73,68.12c-1.097-3.995-5.218-6.347-9.218-5.248l-58.309,16.001c-3.995,1.096-6.345,5.223-5.248,9.218 c1.095,3.991,5.221,6.347,9.218,5.248l58.309-16.001C510.477,76.242,512.827,72.114,511.73,68.12z"/> </g> </g><g> <g> <path d="M511.729,105.62c-1.097-3.994-5.217-6.35-9.217-5.247l-58.309,16.001c-8.393,2.302-6.712,14.735,1.98,14.735 c0.656,0,1.324-0.087,1.988-0.27l58.309-16.001C510.476,113.742,512.826,109.614,511.729,105.62z"/> </g> </g><g> <g> <path d="M511.73,143.122c-1.097-3.995-5.218-6.349-9.218-5.248l-58.309,16.001c-3.995,1.096-6.345,5.223-5.248,9.218 c1.095,3.991,5.221,6.347,9.218,5.248l58.309-16.001C510.477,151.244,512.827,147.117,511.73,143.122z"/> </g> </g><g> <g> <path d="M511.73,180.624c-1.097-3.995-5.218-6.347-9.218-5.248l-58.309,16.001c-3.995,1.096-6.345,5.223-5.248,9.218 c0.914,3.331,3.934,5.518,7.229,5.518c0.656,0,1.324-0.087,1.988-0.27l58.309-16.001 C510.477,188.745,512.827,184.618,511.73,180.624z"/> </g> </g></symbol><symbol id="flatscreen-tv" viewBox="0 0 452.388 452.388"><title>flatscreen-tv</title><path d="M441.677,43.643H10.687C4.785,43.643,0,48.427,0,54.329v297.425c0,5.898,4.785,10.676,10.687,10.676h162.069v25.631 c0,0.38,0.074,0.722,0.112,1.089h-23.257c-5.407,0-9.796,4.389-9.796,9.795c0,5.408,4.389,9.801,9.796,9.801h158.506 c5.406,0,9.795-4.389,9.795-9.801c0-5.406-4.389-9.795-9.795-9.795h-23.256c0.032-0.355,0.115-0.709,0.115-1.089V362.43H441.7 c5.898,0,10.688-4.782,10.688-10.676V54.329C452.37,48.427,447.589,43.643,441.677,43.643z M422.089,305.133 c0,5.903-4.784,10.687-10.683,10.687H40.96c-5.898,0-10.684-4.783-10.684-10.687V79.615c0-5.898,4.786-10.684,10.684-10.684 h370.446c5.898,0,10.683,4.785,10.683,10.684V305.133z"/></symbol><symbol id="serve" viewBox="0 0 512 512"><title>serve</title><path d="M45.823,265a6,6,0,0,0,0-12h-4.2a6,6,0,0,0,0,12Z"/><path d="M169.214,265a6,6,0,0,0,0-12H68.193a6,6,0,1,0,0,12Z"/><path d="M170,94.653a6,6,0,0,0,6-6V44.939a6,6,0,1,0-12,0V88.653A6,6,0,0,0,170,94.653Z"/><path d="M224,109.3V81.368a6,6,0,0,0-12,0V109.3a6,6,0,0,0,12,0Z"/><path d="M128,117.8V94.725a6,6,0,0,0-12,0V117.8a6,6,0,1,0,12,0Z"/><path d="M470.056,222H430V194.047a27.419,27.419,0,0,0,22-27.07V114.836A5.862,5.862,0,0,0,446,109H402.509c-3.314,0-5.509,2.522-5.509,5.836v52.141c0,13.231,9,24.321,21,27.07V222H371V132.781a36.871,36.871,0,0,0-20-32.942V25.14A6.485,6.485,0,0,0,344.59,19H322.884A6.024,6.024,0,0,0,317,25.14V99.721a36.9,36.9,0,0,0-20,33.06V222H248.838A78.882,78.882,0,0,0,176,148.961V134.31a6,6,0,0,0-12,0v14.651C125.925,151.894,94.662,182.809,91.739,222H41.725a30.869,30.869,0,0,0-16.67,4.7A30.456,30.456,0,0,0,11,252.578l.107,29.444a6,6,0,0,0,12-.044L23,252.512a18.377,18.377,0,0,1,7.208-14.7A19.03,19.03,0,0,1,41.86,234H470.289a18.792,18.792,0,0,1,13.452,5.458A18.208,18.208,0,0,1,489,252.368l-.423,115.283-.542.131c-48.47,12.271-107.827,12.139-156.035-.206v-77.2a6,6,0,0,0-12,0v77.305c-52.7,12.122-114.406,12.048-167-.2V305.832a6,6,0,0,0-12,0v62.246c-35.778,10.991-81.862,11.111-117.576.04l-.17-46.14a6,6,0,0,0-12,.044L11.44,372.5a5.893,5.893,0,0,0,4.069,5.576l.338.069C19.769,379.475,24,380.667,28,381.735V486.86A6.1,6.1,0,0,0,33.972,493H64.953A6.162,6.162,0,0,0,71,486.86V454H441v32.86a6.162,6.162,0,0,0,6.047,6.14h30.981A6.1,6.1,0,0,0,484,486.86V381.068c2-.529,4.669-1.075,6.966-1.657l5.059-1.28a6,6,0,0,0,4.532-5.795L501,252.408a30.119,30.119,0,0,0-8.413-21.066A31.094,31.094,0,0,0,470.056,222Zm-366.282,0A66.776,66.776,0,0,1,236.8,222ZM329,31h10V47H329Zm0,28h10V96.056a44.48,44.48,0,0,0-5.131-.343,33.259,33.259,0,0,0-4.869.312Zm30,142H335V152h24Zm0-61H329.1a6.273,6.273,0,0,0-6.1,6.214v61.134A5.8,5.8,0,0,0,329.1,213H359v9H309V132.781a25,25,0,1,1,50,0Zm50-19h31v16H409Zm0,45.977V149h31v17.977a15.5,15.5,0,1,1-31,0ZM59,481H40V384.4c6,1.171,13,2.074,19,2.713Zm382-39H71V423H441Zm0-31H71V387.988c26,1.26,53.782-1.875,76.706-9.414,56.076,13.549,122.6,13.526,178.67-.055,26.216,7.012,55.065,10.524,83.978,10.524,10.26,0,20.646-.446,30.646-1.332Zm31,70H453V386.442c6-.79,13-1.755,19-2.905Z"/></symbol><symbol id="elevator" viewBox="0 0 512 512"><title>elevator</title><path d="m496 288v-264a8 8 0 0 0 -8-8h-464a8 8 0 0 0 -8 8v96h16v-24h96v344h-96v-304h-16v352a8 8 0 0 0 8 8h464a8 8 0 0 0 8-8v-184h-16v136h-96v-344h96v192zm-464 168h96v24h-96zm112-336h88v360h-88zm224-16h-224v-32h224zm-120 376v-360h16v360zm32 0v-360h88v360zm200-24v24h-96v-24zm-96-376v-16a8 8 0 0 0 -8-8h-240a8 8 0 0 0 -8 8v16h-96v-48h448v48z"/><path d="m168 80h16v16h-16z"/><path d="m200 80h16v16h-16z"/><path d="m232 80h16v16h-16z"/><path d="m264 80h16v16h-16z"/><path d="m296 80h16v16h-16z"/><path d="m328 80h16v16h-16z"/><path d="m94 368a18.021 18.021 0 0 0 18-18v-124a18.021 18.021 0 0 0 -18-18h-28a18.021 18.021 0 0 0 -18 18v124a18.021 18.021 0 0 0 18 18zm-28-144h28a2 2 0 0 1 2 2v30h-32v-30a2 2 0 0 1 2-2zm-2 126v-78h32v78a2 2 0 0 1 -2 2h-28a2 2 0 0 1 -2-2z"/><path d="m72 320h16v16h-16z"/><path d="m72 288h16v16h-16z"/><path d="m464 160a8 8 0 0 0 -8-8h-48a8 8 0 0 0 -8 8v32a8 8 0 0 0 8 8h48a8 8 0 0 0 8-8zm-16 24h-32v-16h32z"/><path d="m462.4 275.2-24-32a8 8 0 0 0 -12.8 0l-24 32a8 8 0 0 0 6.4 12.8h48a8 8 0 0 0 6.4-12.8zm-38.4-3.2 8-10.667 8 10.667z"/><path d="m456 304h-48a8 8 0 0 0 -6.4 12.8l24 32a8 8 0 0 0 12.8 0l24-32a8 8 0 0 0 -6.4-12.8zm-24 26.667-8-10.667h16z"/></symbol><symbol id="air-conditioner" viewBox="0 0 510.909 510.909"><title>air-conditioner</title><path d="M475,100.486H121.478c-4.142,0-7.5,3.357-7.5,7.5s3.358,7.5,7.5,7.5H475c11.53,0,20.91,9.38,20.91,20.91v159.691 c0,11.53-9.38,20.91-20.91,20.91h-17.959v-48.867c0-4.143-3.358-7.5-7.5-7.5H61.368c-4.142,0-7.5,3.357-7.5,7.5v48.867H35.91 c-11.53,0-20.91-9.38-20.91-20.91V136.396c0-11.53,9.38-20.91,20.91-20.91h55.568c4.142,0,7.5-3.357,7.5-7.5s-3.358-7.5-7.5-7.5 H35.91c-19.801,0-35.91,16.109-35.91,35.91v159.691c0,19.801,16.109,35.91,35.91,35.91h78.071c4.142,0,7.5-3.357,7.5-7.5 c0-4.142-3.358-7.5-7.5-7.5H68.868v-13.184h298.061c4.142,0,7.5-3.357,7.5-7.5c0-4.143-3.358-7.5-7.5-7.5H68.868v-13.184h373.173 v13.184h-45.112c-4.142,0-7.5,3.357-7.5,7.5c0,4.143,3.358,7.5,7.5,7.5h45.112v13.184H143.98c-4.142,0-7.5,3.358-7.5,7.5 c0,4.143,3.358,7.5,7.5,7.5H475c19.801,0,35.91-16.109,35.91-35.91V136.396C510.909,116.596,494.8,100.486,475,100.486z"/><path d="M449.541,161.467c4.142,0,7.5-3.357,7.5-7.5c0-4.143-3.358-7.5-7.5-7.5H427.36c-4.142,0-7.5,3.357-7.5,7.5 c0,4.143,3.358,7.5,7.5,7.5H449.541z"/><path d="M393.139,161.467c4.142,0,7.5-3.357,7.5-7.5c0-4.143-3.358-7.5-7.5-7.5H251.183c-4.142,0-7.5,3.357-7.5,7.5 c0,4.143,3.358,7.5,7.5,7.5H393.139z"/><path d="M141.082,352.064c-4.142,0-7.5,3.357-7.5,7.5c0,0.223-0.241,22.457-21.047,37.245c-3.376,2.399-4.168,7.082-1.768,10.458 c1.463,2.059,3.773,3.156,6.12,3.156c1.503,0,3.021-0.451,4.339-1.388c27.046-19.224,27.357-48.246,27.357-49.472 C148.582,355.421,145.224,352.064,141.082,352.064z"/><path d="M194.783,352.064c-4.142,0-7.5,3.357-7.5,7.5v43.358c0,4.143,3.358,7.5,7.5,7.5c4.142,0,7.5-3.357,7.5-7.5v-43.358 C202.283,355.421,198.925,352.064,194.783,352.064z"/><path d="M257.564,352.064c-4.142,0-7.5,3.357-7.5,7.5v43.358c0,4.143,3.358,7.5,7.5,7.5c4.142,0,7.5-3.357,7.5-7.5v-43.358 C265.064,355.421,261.706,352.064,257.564,352.064z"/><path d="M398.375,396.809c-20.526-14.589-21.036-36.281-21.047-37.279c-0.018-4.127-3.369-7.466-7.5-7.466 c-4.142,0-7.5,3.357-7.5,7.5c0,1.226,0.311,30.248,27.357,49.472c1.318,0.937,2.836,1.388,4.339,1.388 c2.346-0.001,4.657-1.099,6.12-3.156C402.543,403.891,401.751,399.208,398.375,396.809z"/><path d="M316.126,352.064c-4.142,0-7.5,3.357-7.5,7.5v43.358c0,4.143,3.358,7.5,7.5,7.5c4.142,0,7.5-3.357,7.5-7.5v-43.358 C323.626,355.421,320.268,352.064,316.126,352.064z"/></symbol><symbol id="heater" viewBox="0 0 480 480"><title>heater</title><path d="M88,216c-10.613-0.03-20.796,4.187-28.28,11.712c-3.069,3.178-2.981,8.243,0.197,11.312c3.1,2.994,8.015,2.994,11.115,0 c9.5-9.055,24.436-9.055,33.936,0c9.376,9.37,9.38,24.566,0.011,33.941c-0.004,0.004-0.007,0.007-0.011,0.011 c-9.5,9.055-24.436,9.055-33.936,0c-3.178-3.07-8.242-2.982-11.312,0.196c-2.994,3.1-2.994,8.015,0,11.116 c15.623,15.619,40.95,15.616,56.569-0.008s15.616-40.95-0.008-56.569C108.78,220.213,98.607,216,88,216z"/><path d="M88,72c13.255,0,24-10.745,24-24s-10.745-24-24-24S64,34.745,64,48S74.745,72,88,72z M88,40c4.418,0,8,3.582,8,8 s-3.582,8-8,8s-8-3.582-8-8S83.582,40,88,40z"/><path d="M88,144c17.673,0,32-14.327,32-32s-14.327-32-32-32s-32,14.327-32,32S70.327,144,88,144z M88,96c8.837,0,16,7.163,16,16 s-7.163,16-16,16s-16-7.163-16-16S79.163,96,88,96z"/><path d="M248,48c-4.418,0-8,3.582-8,8v240c0,4.418,3.582,8,8,8s8-3.582,8-8V56C256,51.582,252.418,48,248,48z"/><path d="M408,64c-0.845,0.033-1.68,0.2-2.472,0.496C403.695,64.232,401.85,64.067,400,64c-30.913,0.035-55.965,25.087-56,56v128 c0.042,10.134,6.445,19.15,16,22.528V440c0,13.255-10.745,24-24,24H176c-13.255,0-24-10.745-24-24v-88h112 c13.255,0,24-10.745,24-24V24c0-13.255-10.745-24-24-24H24C10.745,0,0,10.745,0,24v304c0,13.255,10.745,24,24,24h112v88 c0.026,22.08,17.92,39.974,40,40h160c22.08-0.026,39.974-17.92,40-40V270.528c9.555-3.378,15.958-12.394,16-22.528v-72.688 c2.647,0.422,5.32,0.652,8,0.688c1.85-0.068,3.695-0.233,5.528-0.496c0.792,0.297,1.627,0.464,2.472,0.496c4.418,0,8-3.582,8-8 V72C416,67.582,412.418,64,408,64z M48,16h80v120c0,13.255-10.745,24-24,24H72c-13.255,0-24-10.745-24-24V16z M24,336 c-4.418,0-8-3.582-8-8V24c0-4.418,3.582-8,8-8h8v120c0.026,22.08,17.92,39.974,40,40h32c22.08-0.026,39.974-17.92,40-40V16h120 c4.418,0,8,3.582,8,8v304c0,4.418-3.582,8-8,8H24z M368,256c-4.418,0-8-3.582-8-8v-88.8c0.2,0.208,0.448,0.352,0.648,0.552 c1.955,1.951,4.057,3.748,6.288,5.376c0.744,0.544,1.552,0.992,2.328,1.496c1.8,1.209,3.67,2.309,5.6,3.296 c0.392,0.192,0.72,0.464,1.112,0.648L376,248C376,252.418,372.418,256,368,256z M400,160c-4.562,0.008-9.09-0.788-13.376-2.352 c-20.793-7.463-31.598-30.369-24.135-51.162C368.175,90.645,383.169,80.058,400,80V160z"/><path d="M472,112h-32c-4.418,0-8,3.582-8,8s3.582,8,8,8h32c4.418,0,8-3.582,8-8S476.418,112,472,112z"/><path d="M432.504,100c1.405,0.003,2.785-0.367,4-1.072l27.712-16c3.841-2.184,5.184-7.068,3-10.909s-7.068-5.184-10.909-3 c-0.031,0.017-0.061,0.035-0.092,0.053l-27.712,16c-3.826,2.209-5.137,7.102-2.928,10.928 C427.005,98.475,429.646,100,432.504,100z"/><path d="M464.3,157.125c-0.03-0.018-0.061-0.035-0.092-0.053l-27.712-16c-3.812-2.234-8.713-0.956-10.947,2.856 c-2.234,3.812-0.956,8.713,2.856,10.947c0.03,0.018,0.061,0.035,0.092,0.053l27.712,16c3.812,2.234,8.713,0.956,10.947-2.856 C469.39,164.261,468.111,159.359,464.3,157.125z"/><path d="M64,264h32c4.418,0,8-3.582,8-8s-3.582-8-8-8H64c-4.418,0-8,3.582-8,8S59.582,264,64,264z"/></symbol><symbol id="telephone" viewBox="0 0 512 512"><title>telephone</title><g> <g> <path d="M492.381,104.546c-19.646-27.033-54.05-51.433-96.876-68.703C352.91,18.667,303.454,9.169,256.245,9.101 c-47.213-0.118-96.73,9.282-139.386,26.325c-42.9,17.141-77.387,41.435-97.104,68.404C0.817,129.733-4.641,157.652,3.97,184.569 c5.586,17.462,21.881,29.211,40.558,29.238l63.951,0.06c0.021,0,0.042,0,0.064,0c12.752-0.001,24.733-5.583,32.875-15.322 c8.056-9.635,11.393-22.227,9.156-34.549c-0.065-0.361-0.145-0.721-0.236-1.078l-3.365-13.082 c18.634-8.891,60.854-26.069,109.075-25.796c48.186,0.247,90.377,17.415,109.034,26.31l-3.419,13.008 c-0.097,0.368-0.179,0.739-0.249,1.112c-2.271,12.315,1.029,24.916,9.057,34.574c8.128,9.78,20.118,15.398,32.903,15.417 l63.951,0.06c0.021,0,0.043,0,0.064,0c18.641-0.001,34.941-11.696,40.57-29.121C516.65,158.489,511.264,130.53,492.381,104.546z M478.88,176.006c-1.515,4.688-6.238,7.958-11.502,7.958c-0.005,0-0.012,0-0.018,0l-63.951-0.06 c-3.684-0.005-7.125-1.606-9.441-4.393c-1.259-1.515-3.224-4.666-2.581-9.048l6.362-24.203c1.743-6.633-1.146-13.613-7.067-17.075 c-2.467-1.442-61.27-35.328-134.478-35.705c-0.407-0.002-0.802-0.003-1.208-0.003c-72.737,0-131.121,33.738-133.584,35.182 c-5.883,3.45-8.767,10.38-7.068,16.986l6.236,24.242c0.637,4.391-1.34,7.542-2.605,9.056c-2.319,2.774-5.757,4.364-9.441,4.364 c-0.006,0-0.012,0-0.018,0l-63.952-0.06c-5.263-0.008-9.988-3.294-11.49-7.992c-5.592-17.481-1.774-35.446,11.348-53.394 c34.857-47.676,123.657-82.207,211.302-82.207c0.156,0,0.323,0,0.479,0c87.732,0.126,176.665,34.971,211.462,82.853 C480.754,140.524,484.529,158.523,478.88,176.006z"/> </g> </g><g> <g> <path d="M400.595,279.807l-47.691-50.075c-2.885-3.028-6.882-4.741-11.063-4.741h-30.82v-20.823 c0-8.438-6.84-15.278-15.278-15.278c-8.437,0-15.278,6.84-15.278,15.278v20.823h-48.922v-20.823 c0-8.438-6.84-15.278-15.278-15.278s-15.278,6.84-15.278,15.278v20.823h-30.819c-4.181,0-8.18,1.714-11.063,4.741l-47.69,50.075 c-37.392,39.262-57.985,90.744-57.985,144.962v62.853c0,8.438,6.84,15.278,15.278,15.278h374.592 c8.438,0,15.278-6.84,15.278-15.278v-62.853C458.58,370.55,437.987,319.069,400.595,279.807z M83.986,472.344v-47.575 c0-46.337,17.599-90.334,49.557-123.89l43.174-45.334h158.576l43.174,45.334c31.956,33.554,49.555,77.553,49.555,123.89v47.575 H83.986z"/> </g> </g><g> <g> <path d="M256.005,287.135c-44.09,0-79.959,35.87-79.959,79.959c0,44.09,35.87,79.96,79.959,79.96s79.959-35.87,79.959-79.96 C335.964,323.004,300.095,287.135,256.005,287.135z M256.005,416.497c-27.242,0-49.403-22.162-49.403-49.404 c0-27.241,22.162-49.403,49.403-49.403s49.403,22.162,49.403,49.403C305.408,394.335,283.246,416.497,256.005,416.497z"/> </g> </g></symbol><symbol id="fire-exit" viewBox="0 0 512 512"><title>fire-exit</title><path d="M208,176a48,48,0,1,0,48-48A48.054,48.054,0,0,0,208,176Zm80,0a32,32,0,1,1-32-32A32.036,32.036,0,0,1,288,176Z"/><path d="M136,432V387.313l16,16V488a8,8,0,0,0,8,8h40a8,8,0,0,0,8-8V368a8,8,0,0,0-2.343-5.657L179.313,336,208,307.313V328a8,8,0,0,0,8,8h72a8,8,0,0,0,8-8V296a8,8,0,0,0-8-8H256V256a8,8,0,0,0-3.2-6.4l-64-48A8,8,0,0,0,184,200H112a8,8,0,0,0-5.268,1.979l-64,56a8,8,0,0,0-.389,11.678l24,24a8,8,0,0,0,10.864.417L130.959,248h9.728L82.343,306.343A8,8,0,0,0,80,312v80H24a8,8,0,0,0-8,8v32a8,8,0,0,0,8,8H128A8,8,0,0,0,136,432Zm-16-64v56H32V408H88a8,8,0,0,0,8-8V315.313l69.657-69.656A8,8,0,0,0,160,232H128a8.008,8.008,0,0,0-5.207,1.926L72.418,277.1,59.7,264.39l55.3-48.39h66.327L240,260v36a8,8,0,0,0,8,8h32v16H224V288a8,8,0,0,0-13.657-5.657l-48,48a8,8,0,0,0,0,11.314L192,371.313V480H168V400a8,8,0,0,0-2.343-5.657l-32-32A8,8,0,0,0,120,368Z"/><path d="M472,64H424V24a8,8,0,0,0-8-8H304a8,8,0,0,0-8,8V64H248a8,8,0,0,0-8,8v32h16V80H464V480H256V352H240V488a8,8,0,0,0,8,8H472a8,8,0,0,0,8-8V72A8,8,0,0,0,472,64Zm-64,0H312V32h96Z"/><path d="M272,352V456a8,8,0,0,0,8,8H440a8,8,0,0,0,8-8V104a8,8,0,0,0-8-8H280a8,8,0,0,0-8,8v16h16v-8H432V448H288V352Z"/><path d="M413.657,242.343l-48-48A8,8,0,0,0,352,200v16H312a8,8,0,0,0-8,8v48a8,8,0,0,0,8,8h40v16a8,8,0,0,0,13.657,5.657l48-48A8,8,0,0,0,413.657,242.343ZM368,276.687V272a8,8,0,0,0-8-8H320V232h40a8,8,0,0,0,8-8v-4.687L396.687,248Z"/><rect x="328" y="40" width="16" height="16"/><rect x="360" y="40" width="32" height="16"/><path d="M414.4,307.2a8,8,0,0,0-11.2-1.6l-96,72a8,8,0,1,0,9.6,12.8l96-72A8,8,0,0,0,414.4,307.2Z"/><path d="M403.2,353.6l-96,72a8,8,0,1,0,9.6,12.8l96-72a8,8,0,0,0-9.6-12.8Z"/></symbol></svg>