<svg xmlns="http://www.w3.org/2000/svg" style="display: none;"><symbol id="information-desk" viewBox="0 0 512 512"><title>information-desk</title><path d="m172.783 397.335c-4.142 0-7.5 3.357-7.5 7.5v68.33c0 4.143 3.358 7.5 7.5 7.5s7.5-3.357 7.5-7.5v-68.33c0-4.143-3.358-7.5-7.5-7.5zm211.536 84.665c-4.142 0-7.5 3.358-7.5 7.5s3.358 7.5 7.5 7.5 7.5-3.358 7.5-7.5-3.358-7.5-7.5-7.5zm-211.536-99.666c4.142 0 7.5-3.358 7.5-7.5s-3.358-7.5-7.5-7.5-7.5 3.358-7.5 7.5 3.358 7.5 7.5 7.5zm211.536-17.158c-18.627 0-33.782 15.154-33.782 33.781 0 4.143 3.358 7.5 7.5 7.5s7.5-3.357 7.5-7.5c0-10.356 8.425-18.781 18.782-18.781 10.356 0 18.781 8.425 18.781 18.781s-8.425 18.781-18.781 18.781c-4.142 0-7.5 3.357-7.5 7.5v35.762c0 4.143 3.358 7.5 7.5 7.5s7.5-3.357 7.5-7.5v-29.101c15.031-3.42 26.281-16.892 26.281-32.942.001-18.627-15.154-33.781-33.781-33.781zm110.181-102.176h-30.778c-4.376-5.413-10.423-9.489-17.5-11.377l-23.253-6.2c-4.716-1.256-8.01-5.542-8.01-10.423v-5.987c14.029-9.737 23.24-25.952 23.24-44.285v-41.588c0-19.128-15.562-34.69-34.69-34.69h-38.381c-19.128 0-34.69 15.563-34.69 34.69v41.589c0 18.334 9.211 34.549 23.242 44.286v5.985c0 4.881-3.297 9.167-8.023 10.424l-23.24 6.199c-7.077 1.888-13.123 5.964-17.499 11.377h-68.661v-12.991c0-4.143-3.358-7.5-7.5-7.5s-7.5 3.357-7.5 7.5v12.991h-48.474v-73.763l7.541 8.318c2.874 3.169 6.792 4.786 10.735 4.786 3.325 0 6.667-1.15 9.412-3.49l31.445-26.799 16.767 5.111c14.395 4.389 24.067 17.447 24.067 32.496v30.84c0 4.143 3.358 7.5 7.5 7.5s7.5-3.357 7.5-7.5v-30.84c0-21.693-13.942-40.519-34.693-46.844l-42.942-13.091c-2.435-.741-4.591-2.157-6.238-4.1-2.023-2.382-3.137-5.417-3.137-8.546v-6.039c11.138-9.836 18.181-24.206 18.181-40.199v-56.292c0-19.05-15.498-34.548-34.548-34.548h-38.181c-19.05 0-34.548 15.498-34.548 34.548v56.294c0 16.408 7.413 31.11 19.057 40.958v5.431c0 3.117-1.108 6.146-3.136 8.549-1.622 1.934-3.774 3.35-6.232 4.097-9.681 2.942-32.385 9.882-42.387 12.93-20.752 6.322-34.694 25.147-34.694 46.845v53.348h-26.752c-9.649 0-17.5 7.851-17.5 17.5v25c0 9.649 7.851 17.5 17.5 17.5h20v181.5c0 4.143 3.358 7.5 7.5 7.5s7.5-3.357 7.5-7.5v-181.5h18.719c4.142 0 7.5-3.357 7.5-7.5s-3.358-7.5-7.5-7.5h-53.719c-1.378 0-2.5-1.121-2.5-2.5v-25c0-1.379 1.122-2.5 2.5-2.5h280.487c-.375 2.009-.577 4.071-.577 6.17v23.83h-193.266c-4.142 0-7.5 3.357-7.5 7.5s3.358 7.5 7.5 7.5h193.266v23.332c-6.769 9.41-10.772 20.937-10.772 33.388v124.78c0 4.143 3.358 7.5 7.5 7.5s7.5-3.357 7.5-7.5v-124.78c0-23.336 18.984-42.32 42.319-42.32h80.723c23.335 0 42.319 18.984 42.319 42.32v124.78c0 4.143 3.358 7.5 7.5 7.5s7.5-3.357 7.5-7.5v-124.78c0-12.45-4.002-23.976-10.77-33.385v-23.335h23.27c9.649 0 17.5-7.851 17.5-17.5v-25c.001-9.649-7.85-17.5-17.499-17.5zm-288.757-98.926 9.14 2.786-23.773 20.26-14.077-15.528 20.15-11.837c2.573 1.905 5.458 3.375 8.56 4.319zm-79.099-129.526c0-10.778 8.77-19.548 19.548-19.548h38.181c10.779 0 19.548 8.77 19.548 19.548v20.381c-14.377-9.122-31.783-11.321-48.025-5.969l-29.252 9.637zm0 56.294v-16.453l33.946-11.183c12.308-4.055 25.532-2.23 36.282 5.005l7.05 4.745v17.886c0 21.306-17.333 38.64-38.639 38.64s-38.639-17.335-38.639-38.64zm-.941 73.384c3.111-.947 5.993-2.415 8.557-4.311l19.427 11.667-13.696 15.472-23.424-20.041zm32.08 98.774h-48.474v-12.991c0-4.143-3.358-7.5-7.5-7.5s-7.5 3.357-7.5 7.5v12.991h-35.059v-53.35c0-15.051 9.671-28.11 24.068-32.496l16.24-4.954 31.054 26.571c2.71 2.318 6.064 3.455 9.407 3.455 4.023 0 8.031-1.647 10.877-4.862l6.886-7.779v73.415zm-14.246-115.011c.965-2.338 1.615-4.797 1.926-7.319 6.136 2.45 12.82 3.812 19.82 3.812 7.322 0 14.305-1.479 20.67-4.147.301 2.58.957 5.094 1.94 7.481l-22.568 13.259zm201.901-4.849c0-10.857 8.833-19.69 19.69-19.69h38.381c10.857 0 19.69 8.833 19.69 19.69v30.174l-7.104 4.782c-10.816 7.279-24.123 9.113-36.506 5.036l-34.15-11.251v-28.741zm.127 44.574 29.331 9.664c5.881 1.938 11.915 2.893 17.904 2.893 10.396 0 20.658-2.881 29.748-8.494-3.327 18.084-19.197 31.833-38.228 31.833-20.434-.001-37.224-15.848-38.755-35.896zm57.954 60.305c-5.576.658-11.183 1.034-16.781 1.117-7.214.107-14.439-.282-21.612-1.128 2.055-3.505 3.292-7.508 3.501-11.736 4.968 1.516 10.235 2.338 15.693 2.338s10.726-.822 15.694-2.338c.208 4.232 1.447 8.239 3.505 11.747zm52.711 83.877c-9.056-5.995-19.899-9.497-31.549-9.497h-80.723c-11.649 0-22.492 3.502-31.547 9.496v-47.725c0-8.45 5.705-15.874 13.873-18.054l21.527-5.743c12.01 2.501 24.275 3.78 36.529 3.78.874 0 1.748-.007 2.621-.02 11.352-.167 22.734-1.44 33.867-3.758l21.53 5.742c8.168 2.179 13.873 9.603 13.873 18.053v47.726zm40.77-26.396c0 1.379-1.122 2.5-2.5 2.5h-23.27v-23.83c0-2.099-.202-4.161-.577-6.17h23.847c1.378 0 2.5 1.121 2.5 2.5z"/></symbol><symbol id="parking" viewBox="0 0 512.002 512.002"><title>parking</title><g> <g> <path d="M427.971,81.562H402.98c-3.731,0-6.093,2.363-6.093,4.974h-0.001v80.819c0,3.357,3.979,5.098,8.082,5.098 c3.979,0,8.082-1.74,8.082-5.098v-28.846h13.927c16.412,0,29.219-7.834,29.219-28.225v-0.745 C456.196,89.147,443.762,81.562,427.971,81.562z M440.031,111.528c0,9.698-4.973,14.299-13.055,14.299H413.05v-30.09h13.926 c8.082,0,13.055,4.601,13.055,14.299V111.528z"/> </g> </g><g> <g> <path d="M293.069,113.157c-23.604-23.604-54.986-36.603-88.367-36.603c-33.381,0-64.763,12.999-88.367,36.603 c-2.849,2.848-2.849,7.466,0,10.315c2.848,2.848,7.466,2.848,10.314,0c20.849-20.848,48.568-32.33,78.052-32.33 c29.484,0,57.204,11.482,78.052,32.33c1.425,1.424,3.292,2.136,5.158,2.136c1.866,0,3.733-0.712,5.158-2.136 C295.917,120.624,295.917,116.005,293.069,113.157z"/> </g> </g><g> <g> <path d="M262.978,143.248c-32.134-32.134-84.419-32.134-116.552,0c-2.849,2.848-2.849,7.467,0,10.315 c2.848,2.848,7.467,2.848,10.315,0c26.446-26.445,69.476-26.445,95.922,0c1.424,1.424,3.29,2.136,5.157,2.136 c1.866,0,3.733-0.712,5.158-2.136C265.826,150.715,265.826,146.096,262.978,143.248z"/> </g> </g><g> <g> <path d="M233.363,172.862c-15.804-15.804-41.519-15.804-57.323,0c-2.849,2.848-2.849,7.466,0,10.315 c2.848,2.849,7.467,2.848,10.315,0c10.117-10.116,26.577-10.116,36.694,0c1.424,1.425,3.291,2.136,5.157,2.136 c1.866,0,3.733-0.712,5.157-2.136C236.212,180.328,236.212,175.711,233.363,172.862z"/> </g> </g><g> <g> <path d="M358.922,314.919c-3.156-1.737-6.27-3.639-9.254-5.655l-48.245-32.592c-14.642-9.892-31.722-15.12-49.392-15.12H163.48 c-23.505,0-45.621,9.137-62.275,25.727c-8.56,8.529-18.312,15.663-28.985,21.205c-6.312,3.278-10.233,9.729-10.233,16.836 c0,10.466,8.514,18.98,18.98,18.98h30.19c4.028,0,7.294-3.266,7.294-7.294c0-4.028-3.266-7.294-7.294-7.294h-30.19 c-2.422,0-4.393-1.971-4.393-4.393c0-1.641,0.907-3.131,2.368-3.889c11.991-6.226,22.946-14.24,32.558-23.817 c13.9-13.848,32.36-21.474,51.979-21.474h19.825v53.573h-24.232c-4.028,0-7.294,3.266-7.294,7.294s3.266,7.294,7.294,7.294H359.07 c5.996,0,10.874-4.878,10.874-10.874C369.944,325.748,365.72,318.656,358.922,314.919z M197.894,329.713V276.14h54.138 c14.749,0,29.005,4.364,41.226,12.62l48.245,32.592c3.35,2.263,6.845,4.399,10.391,6.349c0.918,0.505,1.687,1.199,2.265,2.012 H197.894z"/> </g> </g><g> <g> <path d="M215.966,355.388h-22.53c-4.028,0-7.294,3.266-7.294,7.294s3.266,7.294,7.294,7.294h22.53 c4.028,0,7.294-3.266,7.294-7.294C223.26,358.654,219.994,355.388,215.966,355.388z"/> </g> </g><g> <g> <path d="M505.709,349.266l-2.304-3.824c-8.683-14.409-23.126-24.555-39.625-27.837l-18.831-3.745v-95.447h48.732 c10.034,0,18.196-8.163,18.196-18.196V58.166c0-10.034-8.163-18.196-18.196-18.196H351.63c-10.034,0-18.196,8.163-18.196,18.196 v53.885c0,4.028,3.265,7.294,7.294,7.294s7.294-3.266,7.294-7.294V58.166c0-1.99,1.619-3.609,3.609-3.609h142.052 c1.99,0,3.609,1.619,3.609,3.609v142.052c0,1.99-1.619,3.609-3.609,3.609H351.63c-1.99,0-3.609-1.619-3.609-3.609v-40.749 c0-4.028-3.265-7.294-7.294-7.294s-7.294,3.266-7.294,7.294v40.749c0,10.034,8.163,18.196,18.196,18.196h55.261v87.879 l-9.68-1.925c-13.36-2.657-26.385-10.72-35.021-16.555l-48.244-32.591c-18.355-12.399-39.764-18.953-61.914-18.953h-88.55 c-29.465,0-57.188,11.453-78.061,32.248c-13.208,13.159-29.834,22.134-48.081,25.956l-10.472,2.193 C11.299,299.926,0,313.838,0,329.744v70.64c0,8.426,4.975,16.083,12.676,19.505l29.052,12.912 c1.757,9.187,6.183,17.96,13.281,25.058c9.433,9.433,21.824,14.15,34.216,14.15c12.392,0,24.782-4.717,34.216-14.15 c6.067-6.067,10.171-13.36,12.336-21.087h242.236c2.165,7.727,6.27,15.02,12.337,21.087c9.14,9.139,21.29,14.173,34.216,14.173 c12.925,0,25.077-5.033,34.217-14.173c6.067-6.067,10.171-13.36,12.336-21.087h13.837c14.913,0,27.046-12.133,27.046-27.046 v-37.832C512,363.92,509.824,356.096,505.709,349.266z M421.478,218.413h8.884v92.546l-8.884-1.767V218.413z M113.125,447.545 c-6.384,6.384-14.872,9.9-23.901,9.9s-17.517-3.516-23.901-9.9c-10.241-10.241-12.519-25.47-6.845-37.936 c0.046-0.1,0.09-0.201,0.136-0.301c0.173-0.37,0.356-0.736,0.543-1.1c0.088-0.172,0.176-0.343,0.268-0.513 c0.169-0.316,0.345-0.63,0.525-0.942c0.124-0.215,0.251-0.428,0.38-0.64c0.167-0.275,0.336-0.549,0.512-0.82 c0.159-0.245,0.323-0.487,0.489-0.728c0.164-0.239,0.327-0.479,0.497-0.714c0.195-0.269,0.398-0.533,0.602-0.797 c0.159-0.206,0.314-0.414,0.478-0.617c0.24-0.297,0.491-0.587,0.741-0.877c0.143-0.165,0.28-0.334,0.426-0.497 c0.372-0.413,0.755-0.818,1.149-1.215c0.034-0.034,0.065-0.07,0.099-0.104c0.075-0.075,0.154-0.145,0.23-0.219 c0.334-0.328,0.67-0.652,1.013-0.963c0.089-0.081,0.183-0.156,0.273-0.236c0.342-0.303,0.686-0.604,1.038-0.891 c0.033-0.027,0.068-0.052,0.101-0.079c12.363-10.005,30.194-9.993,42.542,0.04c0.014,0.012,0.029,0.022,0.044,0.034 c0.377,0.307,0.746,0.629,1.113,0.955c0.066,0.058,0.134,0.113,0.199,0.172c0.424,0.383,0.84,0.778,1.248,1.186 c0.44,0.44,0.864,0.893,1.276,1.352c0.181,0.202,0.352,0.409,0.527,0.614c0.214,0.25,0.429,0.501,0.635,0.756 c0.231,0.287,0.454,0.579,0.674,0.871c0.124,0.163,0.247,0.327,0.367,0.492c0.267,0.368,0.527,0.74,0.778,1.117 c0.043,0.064,0.085,0.129,0.127,0.193C126.088,418.243,124.628,436.041,113.125,447.545z M448.466,447.545 c-6.385,6.384-14.873,9.9-23.902,9.9s-17.516-3.516-23.9-9.9c-11.505-11.504-12.965-29.305-4.384-42.409 c0.041-0.063,0.082-0.126,0.124-0.188c0.251-0.378,0.512-0.751,0.78-1.121c0.119-0.164,0.241-0.326,0.364-0.487 c0.221-0.294,0.445-0.587,0.678-0.876c0.205-0.253,0.417-0.501,0.63-0.749c0.177-0.207,0.35-0.417,0.533-0.62 c0.412-0.459,0.836-0.911,1.276-1.351c6.384-6.384,14.871-9.9,23.9-9.9s17.517,3.516,23.901,9.9 c0.44,0.44,0.864,0.893,1.276,1.352c0.182,0.202,0.353,0.41,0.529,0.616c0.214,0.249,0.428,0.499,0.633,0.753 c0.232,0.288,0.455,0.58,0.676,0.873c0.123,0.163,0.246,0.326,0.366,0.491c0.267,0.369,0.528,0.74,0.778,1.117 c0.043,0.064,0.085,0.128,0.127,0.192C461.429,418.242,459.969,436.042,448.466,447.545z M497.415,409.726h-0.002 c0,6.87-5.589,12.459-12.459,12.459h-12.008c-0.286-10.579-4.02-20.672-10.74-28.947c-0.045-0.056-0.088-0.114-0.134-0.17 c-0.416-0.507-0.847-1.004-1.285-1.498c-0.112-0.126-0.218-0.256-0.331-0.382c-0.464-0.511-0.944-1.012-1.432-1.506 c-0.083-0.084-0.159-0.172-0.243-0.255c-6.284-6.283-13.991-10.626-22.394-12.726c-3.82-0.955-7.783-1.446-11.823-1.446 c-3.231,0-6.414,0.315-9.514,0.929c-9.299,1.844-17.847,6.389-24.702,13.243c-0.082,0.082-0.157,0.168-0.238,0.251 c-0.49,0.497-0.972,0.999-1.437,1.512c-0.11,0.121-0.212,0.247-0.32,0.369c-0.442,0.498-0.878,1-1.297,1.512 c-0.042,0.051-0.081,0.104-0.123,0.156c-6.725,8.276-10.463,18.375-10.75,28.959H137.605 c-0.287-10.597-4.033-20.708-10.775-28.991c-0.031-0.039-0.061-0.078-0.092-0.117c-0.44-0.538-0.897-1.065-1.362-1.587 c-0.086-0.096-0.166-0.195-0.253-0.291c-0.545-0.601-1.105-1.193-1.684-1.772c-2.358-2.358-4.902-4.422-7.583-6.191 c-8.046-5.306-17.339-7.959-26.632-7.959c-12.391,0-24.783,4.717-34.216,14.15c-0.539,0.539-1.06,1.092-1.57,1.652 c-0.151,0.166-0.296,0.335-0.445,0.502c-0.36,0.407-0.714,0.818-1.059,1.234c-0.153,0.185-0.306,0.371-0.456,0.559 c-0.357,0.445-0.705,0.895-1.045,1.35c-0.106,0.142-0.215,0.281-0.318,0.424c-0.914,1.251-1.762,2.541-2.546,3.864 c-0.022,0.037-0.043,0.075-0.065,0.112c-0.383,0.651-0.75,1.311-1.101,1.978c-0.01,0.019-0.02,0.039-0.031,0.058 c-2.543,4.839-4.253,10.073-5.037,15.502l-22.733-10.104c-2.438-1.084-4.013-3.508-4.013-6.175v-70.64 c0-9.041,6.423-16.948,15.272-18.802l10.472-2.193c21.02-4.403,40.172-14.742,55.386-29.899 c18.12-18.053,42.186-27.995,67.765-27.995h88.55c19.229,0,37.814,5.69,53.748,16.453l48.244,32.591 c9.681,6.541,24.396,15.603,40.341,18.775l66.57,13.238c12.482,2.483,23.407,10.158,29.976,21.058l2.304,3.824 c2.747,4.557,4.198,9.779,4.198,15.1V409.726z"/> </g> </g><g> <g> <path d="M104.883,407.986c-4.184-4.183-9.744-6.486-15.659-6.486s-11.476,2.304-15.658,6.486 c-4.182,4.182-6.486,9.743-6.486,15.658c0,5.915,2.304,11.476,6.486,15.658c4.182,4.182,9.743,6.486,15.659,6.486 c5.915,0,11.476-2.303,15.658-6.486C113.517,430.668,113.517,416.62,104.883,407.986z M94.567,428.987 c-1.427,1.427-3.325,2.213-5.343,2.213c-2.019,0-3.916-0.786-5.343-2.214c-1.427-1.427-2.214-3.324-2.214-5.343 c0-2.019,0.786-3.916,2.214-5.343c1.427-1.427,3.324-2.214,5.343-2.214c2.018,0,3.916,0.786,5.343,2.214 C97.513,421.247,97.513,426.041,94.567,428.987z"/> </g> </g><g> <g> <path d="M440.223,407.987c-4.182-4.183-9.743-6.487-15.659-6.487c-5.915,0-11.475,2.303-15.659,6.486 c-8.633,8.634-8.633,22.682,0,31.316c4.183,4.183,9.744,6.486,15.659,6.486c5.916,0,11.476-2.303,15.658-6.485 c4.183-4.182,6.486-9.743,6.486-15.658S444.405,412.169,440.223,407.987z M429.907,428.988c-1.427,1.427-3.324,2.213-5.343,2.213 c-2.018,0-3.916-0.786-5.343-2.213c-2.946-2.946-2.946-7.74,0-10.686c1.427-1.427,3.325-2.214,5.343-2.214 c2.019,0,3.916,0.786,5.344,2.214c1.427,1.427,2.213,3.324,2.213,5.343C432.121,425.662,431.336,427.56,429.907,428.988z"/> </g> </g></symbol><symbol id="dish" viewBox="0 0 480 480"><title>dish</title><g> <g> <path d="M339.904,161.776l-5.136-16.904c-6.524-19.202-27.379-29.479-46.581-22.955c-10.802,3.67-19.285,12.153-22.955,22.955 l-5.136,16.904c-4.322,14.256-5.229,29.329-2.648,44c2.354,12.352,10.196,22.964,21.312,28.84L273.008,363.2 c-0.77,7.177,1.558,14.342,6.4,19.696c10.413,11.39,28.089,12.182,39.479,1.769c0.616-0.563,1.206-1.153,1.769-1.769 c4.734-5.202,7.058-12.157,6.4-19.16L321.272,234.6c11.101-5.879,18.93-16.484,21.28-28.824 C345.133,191.105,344.226,176.032,339.904,161.776z M326.792,202.992c-1.732,8.874-8.056,16.155-16.6,19.112 c-3.243,1.219-5.332,4.387-5.176,7.848L311.096,365c0.28,2.649-0.594,5.29-2.4,7.248c-4.817,4.769-12.575,4.769-17.392,0 c-1.896-2.116-2.757-4.964-2.352-7.776l6.032-134.52c0.156-3.461-1.933-6.629-5.176-7.848c-8.544-2.957-14.868-10.238-16.6-19.112 c-2.14-12.18-1.386-24.693,2.2-36.528l5.136-16.912c3.974-10.745,15.906-16.234,26.652-12.26c5.681,2.101,10.159,6.58,12.26,12.26 l5.136,16.912C328.174,178.3,328.928,190.812,326.792,202.992z"/> </g> </g><g> <g> <path d="M216,120c-4.418,0-8,3.582-8,8v68.688l-21.656,21.656c-1.602,1.596-2.454,3.797-2.344,6.056l7,140 c0.167,3.019-0.929,5.972-3.024,8.152c-4.379,4.418-11.511,4.45-15.93,0.07c-0.024-0.023-0.047-0.047-0.07-0.07 c-2.096-2.18-3.191-5.133-3.024-8.152l7.048-140c0.112-2.258-0.737-4.458-2.336-6.056L152,196.688V128c0-4.418-3.582-8-8-8 s-8,3.582-8,8v72c0,2.122,0.844,4.156,2.344,5.656l21.488,21.496l-6.824,136.472c-0.726,14.907,10.77,27.581,25.677,28.307 c14.907,0.726,27.581-10.77,28.307-25.677c0.043-0.876,0.043-1.753,0-2.629l-6.824-136.472l21.488-21.496 c1.5-1.5,2.344-3.534,2.344-5.656v-72C224,123.582,220.418,120,216,120z"/> </g> </g><g> <g> <path d="M168,120c-4.418,0-8,3.582-8,8v64c0,4.418,3.582,8,8,8s8-3.582,8-8v-64C176,123.582,172.418,120,168,120z"/> </g> </g><g> <g> <path d="M192,120c-4.418,0-8,3.582-8,8v64c0,4.418,3.582,8,8,8s8-3.582,8-8v-64C200,123.582,196.418,120,192,120z"/> </g> </g><g> <g> <path d="M240,0C107.452,0,0,107.452,0,240s107.452,240,240,240s240-107.452,240-240C479.85,107.514,372.486,0.15,240,0z M240,464 C116.288,464,16,363.712,16,240S116.288,16,240,16s224,100.288,224,224C463.859,363.653,363.653,463.859,240,464z"/> </g> </g><g> <g> <path d="M265.969,390.172c-0.429-4.397-4.342-7.614-8.74-7.185c-0.103,0.01-0.206,0.022-0.309,0.036l0.032-0.008 c-11.263,1.308-22.641,1.308-33.904,0c-4.39-0.515-8.365,2.626-8.88,7.016c-0.515,4.39,2.626,8.365,7.016,8.88 c12.491,1.459,25.109,1.459,37.6,0C263.181,398.483,266.398,394.57,265.969,390.172z"/> </g> </g><g> <g> <path d="M362.4,136.912c-2.839-3.385-7.885-3.828-11.27-0.988c-0.011,0.009-0.022,0.019-0.034,0.028 c-3.377,2.848-3.807,7.894-0.96,11.272c48.235,57.26,44.545,141.929-8.488,194.776c-3.13,3.119-3.139,8.186-0.02,11.316 c3.119,3.13,8.186,3.139,11.316,0.02C411.881,294.623,415.991,200.541,362.4,136.912z"/> </g> </g><g> <g> <g> <path d="M186.392,105.744c-0.005,0-0.01-0.001-0.015-0.001c-0.008,0-0.016,0.001-0.025,0.001H186.392z"/> <path d="M277.736,84.472c-31.265-7.493-64.055-5.479-94.168,5.784c-4.136,1.555-6.227,6.169-4.672,10.304 c1.172,3.117,4.152,5.18,7.481,5.183c0.957-0.005,1.905-0.18,2.799-0.519c27.118-10.141,56.646-11.952,84.8-5.2 c4.295,1.038,8.618-1.601,9.656-5.896C284.67,89.833,282.031,85.51,277.736,84.472z"/> </g> </g> </g><g> <g> <path d="M137.992,341.6C111.023,314.677,95.908,278.108,96,240c-0.079-30.446,9.565-60.122,27.528-84.704 c2.655-3.532,1.944-8.547-1.588-11.202s-8.547-1.944-11.202,1.588c-0.047,0.063-0.093,0.126-0.138,0.19 c-46.253,63.588-39.447,151.359,16.056,207.056c3.128,3.13,8.202,3.132,11.332,0.004C141.118,349.804,141.12,344.73,137.992,341.6 z"/> </g> </g></symbol><symbol id="bus" viewBox="0 0 512 512"><title>bus</title><circle cx="160" cy="328" r="8"/><circle cx="416" cy="328" r="8"/><path d="M224,176H64a8.00008,8.00008,0,0,0-8,8v40a8.00008,8.00008,0,0,0,8,8H224a8.00008,8.00008,0,0,0,8-8V184A8.00008,8.00008,0,0,0,224,176ZM72,192H96v24H72Zm40,0h24v24H112Zm40,0h24v24H152Zm64,24H192V192h24Z"/><polygon points="114.343 242.343 101.546 255.14 73.94 248.239 70.06 263.761 88.352 268.334 84.686 272 64 272 64 288 80 288 80 304 96 304 96 283.314 99.666 279.648 104.239 297.94 119.761 294.06 112.859 266.454 125.657 253.657 114.343 242.343"/><path d="M488,304h-8V248a8.00035,8.00035,0,0,0-7.2041-7.96045l-77.1582-7.71582L371.314,208H392a8.00008,8.00008,0,0,0,8-8V168a8,8,0,0,0-6.68457-7.89111l-40-6.66651-56-9.33349A8.023,8.023,0,0,0,296,144H69.22266a39.80519,39.80519,0,0,0-39.835,36.37842,660.05572,660.05572,0,0,0,0,119.24267A40.60229,40.60229,0,0,0,30.02783,304H24a8.00008,8.00008,0,0,0-8,8v32a8.00008,8.00008,0,0,0,8,8H56a8.00008,8.00008,0,0,0,8-8v-8.35052A40.39437,40.39437,0,0,0,69.22266,336h51.58227a40.004,40.004,0,0,0,78.39014,0H376.80518a39.98546,39.98546,0,0,0,73.10449,13.17969A7.97727,7.97727,0,0,0,456,352h32a8.00008,8.00008,0,0,0,8-8V312A8.00008,8.00008,0,0,0,488,304Zm-24-32H448V253.63983l16,1.59992Zm-80,8H360V219.314l24,24Zm-24,16h24v8.02795A39.83173,39.83173,0,0,0,376.80518,320H360Zm24-104H360V170.7771l24,3.99976ZM48,336H32V320H48Zm112,16a24,24,0,1,1,24-24A24.0275,24.0275,0,0,1,160,352Zm152-32H296V192h16Zm-32,0H264V192h16Zm64,0H328V184a8.00008,8.00008,0,0,0-8-8H256a8.00008,8.00008,0,0,0-8,8V320H199.19507a40.004,40.004,0,0,0-78.39014,0H69.22266A24.04483,24.04483,0,0,1,64,319.42877V312a8.00008,8.00008,0,0,0-8-8H46.5957a23.96761,23.96761,0,0,1-1.27441-5.82764,644.28236,644.28236,0,0,1,0-116.34521A23.8835,23.8835,0,0,1,69.22266,160H295.33789L344,168.11035Zm72,32a24,24,0,1,1,24-24A24.0275,24.0275,0,0,1,416,352Zm33.90967-45.17969A39.93828,39.93828,0,0,0,400,291.35V248.84l32,3.19983V280a8.00008,8.00008,0,0,0,8,8h24v16h-8A7.97727,7.97727,0,0,0,449.90967,306.82031ZM480,336H464V320h16Z"/></symbol><symbol id="swimming-pool" viewBox="0 0 512.167 512.167"><title>swimming-pool</title><path d="m512.164 281.277c0-4.143-3.357-7.5-7.5-7.5s-7.5 3.357-7.5 7.5v22.436c-35.406 2.353-44.184 23.013-75.361 22.665-30.383-.34-41.719-22.431-82.864-22.88-11.47-.125-20.182 1.688-27.354 4.105v-108.267h185.58v49.261c0 4.143 3.357 7.5 7.5 7.5s7.5-3.357 7.5-7.5v-56.761c0-4.143-3.357-7.5-7.5-7.5h-193.08v-35.899c0-10.962 8.914-19.88 19.87-19.88 10.962 0 19.88 8.918 19.88 19.88 0 12.958 10.542 23.5 23.5 23.5s23.5-10.542 23.5-23.5c0-36.878-30.002-66.88-66.88-66.88-16.54 0-31.685 6.05-43.372 16.037-12.049-10.259-27.481-16.037-43.378-16.037-36.872 0-66.87 30.002-66.87 66.88v35.899h-83.87c-4.142 0-7.5 3.357-7.5 7.5s3.358 7.5 7.5 7.5h83.87v104.259c-38.5-3.649-55.445 22.782-87.475 22.782-27.969 0-47.745-20.664-75.355-22.619v-104.422h46.27c4.142 0 7.5-3.357 7.5-7.5s-3.358-7.5-7.5-7.5h-53.772c-4.142 0-7.5 3.357-7.5 7.5l-.003 208.393c0 4.143 3.358 7.553 7.5 7.5 33.161-.422 43.333 22.881 82.859 22.881 41.225 0 52.494-23.796 82.859-22.881 32.115.968 39.615 22.881 82.858 22.881 44.507 0 52.482-22.881 82.861-22.881 30.385 0 39.146 22.881 82.864 22.881 41.531 0 52.484-22.881 82.864-22.881 4.143 0 7.5-3.357 7.5-7.5zm-232.581-132.84c0-28.606 23.269-51.88 51.87-51.88 28.606 0 51.88 23.273 51.88 51.88 0 4.687-3.813 8.5-8.5 8.5s-8.5-3.813-8.5-8.5c0-19.232-15.647-34.88-34.88-34.88-19.228 0-34.87 15.647-34.87 34.88v165.951c-.914.497-11.794 6.502-17 8.37zm-86.75 0c0-28.606 23.269-51.88 51.87-51.88 12.09 0 23.835 4.321 33.104 11.999-3.457 4.639-6.311 9.747-8.484 15.198-6.313-6.297-15.02-10.197-24.62-10.197-19.228 0-34.87 15.647-34.87 34.88v162.981c-4.825-2.334-10.281-4.485-17-5.955zm32 119.904v-27h39.75v27zm39.75 15v42.657c-15 2.199-29.263-.551-39.75-6.609v-36.048zm-39.75-57v-27h39.75v27zm0-42v-35.904c0-10.962 8.914-19.88 19.87-19.88 10.962 0 19.88 8.918 19.88 19.88v35.904zm272.334 164.035c-29.583 2.32-41.581 21.891-75.363 22.62-32.47.7-47.22-23.05-82.87-22.88-26.484.126-43.539 16.884-67.93 21.586-4.067.784-6.729 4.717-5.944 8.784s4.714 6.729 8.784 5.944c23.685-4.567 39.949-21.314 65.09-21.314 30.439 0 51.856 23.103 82.87 22.88 41.78-.3 43.28-21.05 75.363-22.588v29.577c-36.083 1.711-45.833 22.624-75.364 22.624-30.385 0-45.968-22.851-82.864-22.881-39.604-.032-46.854 22.881-82.861 22.881-30.269 0-40.493-22.663-82.858-22.881-37.638-.193-52.48 22.881-82.859 22.881-27.971 0-47.746-20.671-75.359-22.624v-29.578c27.447 2.23 46.582 22.588 75.363 22.588 30.833 0 52.475-22.88 82.85-22.88 24.977 0 41.623 16.8 65.114 21.315 4.07.781 8-1.881 8.781-5.949.782-4.067-1.882-7.999-5.949-8.781-24.983-4.802-40.84-21.585-67.946-21.585-30.832 0-52.474 22.88-82.85 22.88-27.971 0-47.75-20.667-75.363-22.62v-29.591c27.599 2.242 37.583 22.661 75.359 22.592 43.734-.08 52.481-22.88 82.859-22.88 29.916 0 38.112 22.806 82.858 22.88 41.757.069 52.59-22.88 82.861-22.88 34.027 0 40.146 22.809 82.864 22.88 42.031.069 48.165-20.383 75.364-22.592z"/></symbol><symbol id="woman" viewBox="0 0 479.982 479.982"><title>woman</title><path d="M451.991,103.982h-32c-4.418,0-8,3.582-8,8v8c0-4.418-3.582-8-8-8h-24c-4.22-0.009-7.721,3.261-8,7.472l-0.552,8.528 h-15.448v-16c0-4.418-3.582-8-8-8h-32c-4.418,0-8,3.582-8,8v48c0,4.418,3.582,8,8,8h32c4.418,0,8-3.582,8-8v-16h14.4 l-4.368,65.448c-0.716,8.265-7.656,14.596-15.952,14.552h-50.08v-3.432c-0.012-3.081-1.792-5.881-4.576-7.2 c-10.834-5.061-22.321-8.588-34.128-10.48c-1.282-0.184-2.589-0.052-3.808,0.384c-4.404-1.342-8.917-2.295-13.488-2.848v-21.824 c2.372-1.213,4.67-2.568,6.88-4.056c26.88-18.808,49.12-37.696,49.12-78.344v-8.2c-0.039-24.325-10.108-47.556-27.832-64.216 c-31.185-28.994-78.562-31.77-112.92-6.616c-34.748-6.252-67.986,16.849-74.238,51.598c-0.667,3.708-1.005,7.467-1.01,11.234v120 c0,4.418,3.582,8,8,8c30.589,0.052,60.015-11.72,82.128-32.856c1.897,1.251,3.857,2.404,5.872,3.456v21.824 c-4.572,0.542-9.088,1.484-13.496,2.816c-1.216-0.435-2.521-0.567-3.8-0.384c-11.807,1.892-23.294,5.419-34.128,10.48 c-2.784,1.319-4.564,4.119-4.576,7.2v0.264c-30.253,33.984-47.288,77.707-48,123.2c0,21.944,1.048,47.2,7.544,64H67.991v-16 c0-4.418-3.582-8-8-8h-32c-4.418,0-8,3.582-8,8v48c0,4.418,3.582,8,8,8h32c4.418,0,8-3.582,8-8v-16h45.736 c-8.973,17.306-13.682,36.506-13.736,56h16c0.041-13.763,2.758-27.386,8-40.112v0.112c0,4.418,3.582,8,8,8h32c4.418,0,8-3.582,8-8 v-32h100.16l4.608,5.76c15.014,18.816,23.204,42.168,23.232,66.24h16c-0.035-27.704-9.463-54.578-26.744-76.232l-6.12-7.648 l-3.072-9.216c-7.446-22.371-6.735-46.655,2.008-68.552l0.448-1.12c9.928-3.11,16.89-12.045,17.48-22.432v-0.328l86.712-18.576 c14.717-3.225,25.225-16.23,25.288-31.296v-84.6c0,4.418,3.582,8,8,8h32c4.418,0,8-3.582,8-8v-48 C459.991,107.564,456.409,103.982,451.991,103.982z M339.991,151.982h-16v-32h16V151.982z M51.991,431.982h-16v-32h16V431.982z M113.983,404.606l0.56,3.4h-13.28c-4.568-6.36-9.272-22.888-9.272-64.024c0.663-35.237,11.803-69.478,32-98.36 c0,0,0,48.584,0,48.584C113.439,318.11,109.935,380.302,113.983,404.606z M207.191,16.134 c37.941-2.556,71.313,24.867,76.16,62.584l-43.784-21.896c-1.534-0.771-3.278-1.024-4.968-0.72l-92.944,16.4 C148.23,41.048,175.108,17.93,207.191,16.134z M99.991,191.678V79.982c0.032-24.777,18.899-45.466,43.568-47.776 c-12.758,15.78-19.671,35.484-19.568,55.776v8.2c0,34.32,15.88,53.112,36.992,69.464 C144.094,180.835,122.643,189.991,99.991,191.678z M139.991,96.182v-7.136l94.792-16.728l49.168,24.584 c-0.232,29.792-13.84,44.624-42.248,64.52c-17.857,12.433-41.567,12.433-59.424,0C153.631,141.358,139.991,126.486,139.991,96.182 z M171.991,218.15c5.214-1.429,10.594-2.158,16-2.168c4.418,0,8-3.582,8-8v-23.336c10.484,2.79,21.516,2.79,32,0v23.336 c0,4.418,3.582,8,8,8c5.406,0.01,10.786,0.739,16,2.168v12.8l-40,8.6l-40-8.6V218.15z M128.463,384.886 c-0.491-23.92,1.577-47.824,6.168-71.304c2.084,1.442,4.328,2.636,6.688,3.56c8.065,21.493,8.413,45.119,0.984,66.84h-10.312 C130.76,384.001,129.551,384.311,128.463,384.886z M155.991,431.982h-16v-32h16V431.982z M171.991,391.982c0-4.418-3.582-8-8-8 h-4.8c6.055-20.904,6.055-43.096,0-64h105.28c-7.512,23.435-7.369,48.652,0.408,72H171.991z M283.991,294.782 c0,4.344-6.84,9.2-16,9.2h-112c-9.16,0-16-4.856-16-9.2v-69.024c5.193-2.144,10.542-3.89,16-5.224v16.904 c-0.001,3.772,2.632,7.032,6.32,7.824l48,10.328c1.107,0.242,2.253,0.242,3.36,0l48-10.328c3.688-0.792,6.321-4.052,6.32-7.824 v-16.912c5.458,1.334,10.807,3.08,16,5.224V294.782z M383.343,260.23l-83.352,17.856v-38.104h50.08 c16.645,0.051,30.531-12.706,31.888-29.296l5.52-82.704h8.512v116.6h0C395.962,252.117,390.705,258.622,383.343,260.23z M443.991,151.982h-16v-32h16V151.982z"/></symbol><symbol id="concierge" viewBox="0 0 512 512"><title>concierge</title><g> <g> <path d="M294.028,198.446c-6.439,0-11.677,5.238-11.677,11.677c0,6.438,5.238,11.676,11.677,11.676 c6.439,0,11.677-5.238,11.677-11.676C305.705,203.684,300.467,198.446,294.028,198.446z"/> </g> </g><g> <g> <path d="M217.836,198.446c-6.439,0-11.677,5.238-11.677,11.677c0,6.438,5.238,11.676,11.677,11.676 c6.438,0,11.676-5.238,11.677-11.676C229.513,203.684,224.275,198.446,217.836,198.446z"/> </g> </g><g> <g> <path d="M266.184,247.664h-20.416c-5.769,0-10.446,4.677-10.446,10.446c0,11.388,9.266,20.654,20.654,20.654 c11.388,0,20.653-9.265,20.654-20.654C276.63,252.34,271.953,247.664,266.184,247.664z"/> </g> </g><g> <g> <path d="M63.891,240.206c-6.336,0-11.491,5.155-11.491,11.491s5.155,11.491,11.491,11.491c6.337,0,11.491-5.155,11.491-11.491 S70.227,240.206,63.891,240.206z"/> </g> </g><g> <g> <path d="M81.793,304.998h-0.158c-5.769,0-10.446,4.677-10.446,10.446s4.677,10.446,10.446,10.446h0.158 c5.769,0,10.446-4.677,10.446-10.446S87.562,304.998,81.793,304.998z"/> </g> </g><g> <g> <path d="M119.126,305.16c-8.688-22.633-30.361-37.831-55.234-37.831c-24.875,0-46.547,15.199-55.234,37.831 c-4.892,0.87-8.606,5.144-8.606,10.284v27.16c0,5.769,4.677,10.446,10.446,10.446h106.788c5.769,0,10.446-4.677,10.446-10.446 v-27.16C127.732,310.302,124.018,306.029,119.126,305.16z M106.84,332.158H20.944v-6.268h25.944 c5.769,0,10.446-4.677,10.446-10.446s-4.677-10.446-10.446-10.446H32.163c6.947-10.284,18.651-16.778,31.728-16.778 c17.91,0,33.253,12.169,37.314,29.594c0.736,3.157,2.859,5.698,5.635,7.039V332.158z"/> </g> </g><g> <g> <path d="M289.522,432.442h-0.137c-5.769,0-10.446,4.677-10.446,10.446c0,5.769,4.677,10.446,10.446,10.446h0.137 c5.769,0,10.446-4.677,10.446-10.446C299.968,437.119,295.291,432.442,289.522,432.442z"/> </g> </g><g> <g> <path d="M289.522,398.667h-0.137c-5.769,0-10.446,4.677-10.446,10.446c0,5.769,4.677,10.446,10.446,10.446h0.137 c5.769,0,10.446-4.677,10.446-10.446C299.968,403.343,295.291,398.667,289.522,398.667z"/> </g> </g><g> <g> <path d="M289.522,364.89h-0.137c-5.769,0-10.446,4.677-10.446,10.446s4.677,10.446,10.446,10.446h0.137 c5.769,0,10.446-4.677,10.446-10.446S295.291,364.89,289.522,364.89z"/> </g> </g><g> <g> <path d="M222.516,432.442h-0.137c-5.769,0-10.446,4.677-10.446,10.446c0,5.769,4.677,10.446,10.446,10.446h0.137 c5.769,0,10.446-4.677,10.446-10.446C232.962,437.119,228.285,432.442,222.516,432.442z"/> </g> </g><g> <g> <path d="M188.583,432.441h-39.191c-5.769,0-10.446,4.677-10.446,10.446s4.677,10.446,10.446,10.446h39.191 c5.769,0,10.446-4.677,10.446-10.446S194.353,432.441,188.583,432.441z"/> </g> </g><g> <g> <path d="M222.516,398.667h-0.137c-5.769,0-10.446,4.677-10.446,10.446c0,5.769,4.677,10.446,10.446,10.446h0.137 c5.769,0,10.446-4.677,10.446-10.446C232.962,403.343,228.285,398.667,222.516,398.667z"/> </g> </g><g> <g> <path d="M222.516,364.89h-0.137c-5.769,0-10.446,4.677-10.446,10.446s4.677,10.446,10.446,10.446h0.137 c5.769,0,10.446-4.677,10.446-10.446S228.285,364.89,222.516,364.89z"/> </g> </g><g> <g> <path d="M71.085,160.124c-1.788,0-3.535,0.182-5.223,0.525v-22.462h13.58c5.769,0,10.446-4.677,10.446-10.446 c0-5.769-4.677-10.446-10.446-10.446h-13.58v-3.831h13.58c5.769,0,10.446-4.677,10.446-10.446c0-5.769-4.677-10.446-10.446-10.446 H55.416c-5.769,0-10.446,4.677-10.446,10.446v57.632c-1.688-0.344-3.435-0.525-5.223-0.525c-14.4,0-26.115,11.715-26.115,26.116 c0,14.4,11.715,26.115,26.115,26.115c5.875,0,11.302-1.951,15.669-5.238c4.368,3.286,9.794,5.238,15.669,5.238 c14.4,0,26.116-11.715,26.116-26.116S85.486,160.124,71.085,160.124z M39.747,191.463c-2.88,0-5.223-2.343-5.223-5.223 s2.343-5.223,5.223-5.223c2.88,0,5.223,2.343,5.223,5.223S42.627,191.463,39.747,191.463z M71.085,191.463 c-2.88,0-5.223-2.343-5.223-5.223s2.343-5.223,5.223-5.223c2.88,0,5.223,2.343,5.223,5.223S73.965,191.463,71.085,191.463z"/> </g> </g><g> <g> <path d="M10.583,477.36h-0.137C4.677,477.36,0,482.037,0,487.806s4.677,10.446,10.446,10.446h0.137 c5.769,0,10.446-4.677,10.446-10.446S16.353,477.36,10.583,477.36z"/> </g> </g><g> <g> <path d="M501.554,353.05h-26.33v-22.949c0-5.769-4.677-10.446-10.446-10.446h-73.552c-5.769,0-10.446,4.677-10.446,10.446v22.949 h-17.078l-51.285-21.369c-2.39-0.996-3.935-3.313-3.935-5.903v-16.267l27.305-15.657c0.19-0.109,0.377-0.225,0.561-0.346 c13.672-9.029,22.651-25.087,24.016-42.954c0.021-0.264,0.03-0.531,0.03-0.796v-8.671c13.565-4.412,23.398-17.178,23.398-32.196 c0-15.018-9.833-27.784-23.398-32.196v-21.64c0-6.083-1.08-19.287-5.216-32.556V36.977c0-4.644-3.066-8.73-7.524-10.029 c-45.236-13.179-91.537-16.509-137.629-9.903c-15.361,2.212-30.741,5.545-45.712,9.902c-4.459,1.299-7.526,5.385-7.526,10.03 v86.324c-2.982,9.333-5.317,30.749-5.317,31.754v21.64c-13.565,4.412-23.398,17.178-23.398,32.196s9.833,27.784,23.398,32.196 v8.671c0,0.265,0.01,0.532,0.03,0.796c1.372,17.94,10.286,33.997,23.848,42.954c0.187,0.123,0.378,0.24,0.572,0.352l27.462,15.7 v16.217c0,2.59-1.545,4.907-3.935,5.903l-67.231,28.013c-17.595,7.332-29.882,26.672-29.882,47.033v70.632H44.379 c-5.769,0-10.446,4.677-10.446,10.446s4.677,10.446,10.446,10.446h457.175c5.769,0,10.446-4.677,10.446-10.446v-124.31 C512,357.727,507.323,353.05,501.554,353.05z M338.41,141.542c-11.337,6.945-24.253,10.592-37.701,10.592 c-23.439,0-45.111-11.352-58.57-29.844c31.634-1.462,63.24,2.061,94.35,10.541C337.281,135.701,337.931,138.605,338.41,141.542z M177.68,44.917c11.639-3.075,23.486-5.49,35.318-7.193c40.566-5.816,81.33-3.395,121.289,7.189v65.735 c-40.97-10.138-82.702-12.262-124.261-6.303c-10.825,1.56-21.656,3.674-32.346,6.312V44.917z M245.47,477.36H123.226v-70.632 c0-11.774,7.32-23.703,17.026-27.748l67.231-28.013c10.2-4.252,16.791-14.138,16.791-25.188v-4.274 c0,0,16.604,9.176,21.196,10.342V477.36z M243.427,308.415c-0.187-0.123-0.378-0.241-0.572-0.352l-56.249-32.157 c-7.983-5.406-13.282-15.29-14.243-26.566v-17.048c0-5.769-4.677-10.446-10.446-10.446c-7.142,0-12.952-5.811-12.952-12.953 s5.811-12.952,12.952-12.952c5.769,0,10.446-4.677,10.446-10.446v-27.682c0.239-0.877,0.368-1.802,0.368-2.756 c0-1.173,0.024-2.343,0.073-3.51c18.29-2.169,35.163-10.315,48.252-23.257c16.792,27.512,46.88,44.738,79.655,44.738 c13.565,0,26.711-2.884,38.793-8.429v20.896c0,5.769,4.677,10.446,10.446,10.446c7.142,0,12.952,5.811,12.952,12.952 c0,7.142-5.811,12.953-12.952,12.953c-5.769,0-10.446,4.677-10.446,10.446v17.047c-0.948,11.047-6.441,21.17-14.417,26.57 L269,308.069c-0.191,0.109-0.377,0.225-0.561,0.346C260.609,313.588,251.257,313.587,243.427,308.415z M343.731,432.441h-20.414 c-5.769,0-10.446,4.677-10.446,10.446s4.677,10.446,10.446,10.446h20.414v24.026h-77.368V331.855 c4.606-1.166,9.094-3.087,13.296-5.816l7.931-4.547v4.287c0,11.052,6.592,20.938,16.792,25.189l39.349,16.395V432.441z M401.673,340.547h52.659v12.503h-52.659V340.547z M491.108,477.36H364.624V373.943h126.484V477.36z"/> </g> </g><g> <g> <path d="M460.56,398.666h-0.158c-5.769,0-10.446,4.677-10.446,10.446c0,5.769,4.677,10.446,10.446,10.446h0.158 c5.769,0,10.446-4.677,10.446-10.446C471.006,403.342,466.329,398.666,460.56,398.666z"/> </g> </g><g> <g> <path d="M425.656,398.667h-30.484c-5.769,0-10.446,4.677-10.446,10.446c0,5.769,4.677,10.446,10.446,10.446h30.484 c5.769,0,10.446-4.677,10.446-10.446C436.102,403.343,431.425,398.667,425.656,398.667z"/> </g> </g></symbol></svg>